<svg height="69" viewBox="0 0 496 69.1833" xmlns:xlink="http://www.w3.org/1999/xlink" width="496" xmlns="http://www.w3.org/2000/svg"><defs><linearGradient gradientUnits="userSpaceOnUse" x1="68" x2="420" y2="-98" y1="148" id="lg1"><stop stop-color="#991005" offset="0.00"/><stop stop-color="#c20a0d" offset="0.26"/><stop stop-color="#eb4c4b" offset="0.47"/><stop stop-color="#b26ffb" offset="0.51"/><stop stop-color="#de9fff" offset="0.67"/><stop stop-color="#9abaf6" offset="1.00"/></linearGradient><linearGradient x1="0%" x2="100%" y2="0%" y1="0%" id="lg2"><stop stop-color="#d49595" offset="0.00"/><stop stop-color="#fbe4de" offset="1.00"/></linearGradient></defs><g transform="translate(1.33,1.13)" id="group1"><path d="M36.9,49.8L29.2,49.8L29.2,28.7L7.6,28.7L7.6,49.8L.0,49.8L.0,3.0L7.6,3.0L7.6,22.1L29.2,22.1L29.2,3.0L36.9,3.0L36.9,49.8zM73.3,49.8L72.2,45.1L71.8,45.1C70.8,46.8,69.3,48.1,67.4,49.0C65.4,49.9,63.2,50.4,60.8,50.4C56.5,50.4,53.3,49.3,51.2,47.2C49.1,45.1,48.0,41.8,48.0,37.5L48.0,14.4L55.6,14.4L55.6,36.2C55.6,38.9,56.1,40.9,57.2,42.3C58.4,43.6,60.1,44.3,62.5,44.3C65.6,44.3,67.9,43.4,69.4,41.5C70.9,39.6,71.6,36.4,71.6,32.0L71.6,14.4L79.2,14.4L79.2,49.8L73.3,49.8zM111.4,49.8L109.9,44.8L109.6,44.8C107.9,47.0,106.2,48.5,104.5,49.2C102.7,50.0,100.5,50.4,97.8,50.4C94.3,50.4,91.6,49.5,89.7,47.6C87.7,45.7,86.8,43.1,86.8,39.6C86.8,36.0,88.1,33.2,90.8,31.4C93.5,29.5,97.7,28.5,103.2,28.3L109.3,28.1L109.3,26.3C109.3,24.0,108.8,22.3,107.7,21.2C106.7,20.1,105.0,19.5,102.8,19.5C101.0,19.5,99.3,19.8,97.6,20.3C95.9,20.8,94.3,21.5,92.8,22.2L90.4,16.8C92.3,15.8,94.4,15.1,96.7,14.5C99.0,14.0,101.1,13.8,103.1,13.8C107.6,13.8,111.0,14.7,113.3,16.7C115.6,18.7,116.8,21.7,116.8,25.9L116.8,49.8L111.4,49.8zM100.2,44.6C102.9,44.6,105.1,43.9,106.8,42.4C108.4,40.8,109.2,38.7,109.2,35.9L109.2,32.9L104.7,33.1C101.2,33.2,98.6,33.8,97.0,34.8C95.4,35.9,94.6,37.5,94.6,39.7C94.6,41.3,95.0,42.5,96.0,43.3C96.9,44.2,98.3,44.6,100.2,44.6zM156.5,49.8L151.9,33.3C151.3,31.5,150.3,27.4,148.9,21.1L148.6,21.1C147.4,26.8,146.4,30.9,145.7,33.3L141.0,49.8L132.6,49.8L122.7,14.4L130.4,14.4L134.9,31.8C135.9,36.1,136.7,39.8,137.1,42.9L137.3,42.9C137.5,41.3,137.8,39.5,138.2,37.5C138.7,35.5,139.1,34.0,139.4,33.0L144.8,14.4L153.0,14.4L158.2,33.0C158.5,34.0,158.9,35.6,159.4,37.8C159.9,40.0,160.2,41.6,160.3,42.8L160.5,42.8C160.8,40.2,161.6,36.5,162.8,31.8L167.3,14.4L174.9,14.4L164.9,49.8L156.5,49.8zM196.1,50.4C190.6,50.4,186.3,48.8,183.2,45.6C180.1,42.4,178.6,38.0,178.6,32.3C178.6,26.6,180.0,22.0,182.9,18.7C185.8,15.4,189.7,13.8,194.7,13.8C199.4,13.8,203.1,15.2,205.8,18.0C208.5,20.8,209.9,24.7,209.9,29.7L209.9,33.8L186.3,33.8C186.4,37.2,187.3,39.8,189.1,41.7C190.8,43.5,193.3,44.5,196.5,44.5C198.6,44.5,200.5,44.3,202.3,43.9C204.1,43.5,206.0,42.8,208.1,41.9L208.1,48.0C206.3,48.9,204.4,49.5,202.5,49.9C200.7,50.2,198.5,50.4,196.1,50.4zM194.7,19.4C192.4,19.4,190.4,20.2,189.0,21.7C187.6,23.2,186.7,25.4,186.4,28.3L202.5,28.3C202.4,25.4,201.7,23.2,200.4,21.7C199.0,20.2,197.1,19.4,194.7,19.4zM226.4,49.8L218.9,49.8L218.9,14.4L226.4,14.4L226.4,49.8zM218.4,5.0C218.4,3.7,218.8,2.6,219.5,1.9C220.3,1.2,221.3,.8,222.7,.8C224.0,.8,225.0,1.2,225.8,1.9C226.5,2.6,226.9,3.7,226.9,5.0C226.9,6.3,226.5,7.3,225.8,8.0C225.0,8.8,224.0,9.1,222.7,9.1C221.3,9.1,220.3,8.8,219.5,8.0C218.8,7.3,218.4,6.3,218.4,5.0zM269.9,49.8L262.3,49.8L262.3,9.6L248.5,9.6L248.5,3.0L283.7,3.0L283.7,9.6L269.9,9.6L269.9,49.8zM310.5,8.9C306.1,8.9,302.7,10.4,300.2,13.6C297.6,16.7,296.4,21.0,296.4,26.4C296.4,32.2,297.6,36.5,300.0,39.5C302.4,42.4,305.9,43.9,310.5,43.9C312.5,43.9,314.4,43.7,316.3,43.3C318.1,42.9,320.1,42.4,322.1,41.8L322.1,48.3C318.4,49.7,314.2,50.4,309.6,50.4C302.7,50.4,297.5,48.3,293.8,44.2C290.2,40.0,288.3,34.1,288.3,26.4C288.3,21.5,289.2,17.3,291.0,13.6C292.8,10.0,295.3,7.2,298.7,5.2C302.1,3.3,306.0,2.3,310.6,2.3C315.4,2.3,319.8,3.3,323.8,5.3L321.1,11.7C319.5,11.0,317.8,10.3,316.1,9.7C314.3,9.2,312.5,8.9,310.5,8.9zM358.5,37.1C358.5,41.2,357.0,44.5,354.0,46.8C351.0,49.2,346.8,50.4,341.6,50.4C336.3,50.4,331.9,49.6,328.6,47.9L328.6,40.7C330.7,41.7,333.0,42.5,335.4,43.1C337.8,43.7,340.0,43.9,342.1,43.9C345.1,43.9,347.3,43.4,348.8,42.2C350.2,41.1,350.9,39.5,350.9,37.6C350.9,35.8,350.3,34.3,348.9,33.1C347.6,31.9,344.9,30.5,340.8,28.8C336.5,27.1,333.5,25.1,331.7,22.9C330.0,20.7,329.1,18.0,329.1,14.9C329.1,11.0,330.5,7.9,333.3,5.7C336.1,3.5,339.8,2.3,344.4,2.3C348.9,2.3,353.4,3.3,357.8,5.3L355.4,11.5C351.2,9.8,347.5,8.9,344.2,8.9C341.8,8.9,339.9,9.4,338.6,10.5C337.3,11.6,336.7,13.0,336.7,14.8C336.7,16.0,337.0,17.0,337.5,17.9C338.0,18.8,338.8,19.6,340.0,20.3C341.2,21.1,343.3,22.1,346.3,23.4C349.8,24.8,352.3,26.1,353.9,27.4C355.5,28.6,356.6,30.0,357.4,31.6C358.1,33.1,358.5,35.0,358.5,37.1zM383.4,49.8L383.4,3.0L391.0,3.0L391.0,43.2L410.8,43.2L410.8,49.8L383.4,49.8zM440.2,49.8L438.7,44.8L438.4,44.8C436.7,47.0,435.0,48.5,433.3,49.2C431.6,50.0,429.4,50.4,426.6,50.4C423.2,50.4,420.5,49.5,418.5,47.6C416.6,45.7,415.6,43.1,415.6,39.6C415.6,36.0,416.9,33.2,419.6,31.4C422.4,29.5,426.5,28.5,432.0,28.3L438.1,28.1L438.1,26.3C438.1,24.0,437.6,22.3,436.5,21.2C435.5,20.1,433.9,19.5,431.6,19.5C429.8,19.5,428.1,19.8,426.4,20.3C424.8,20.8,423.2,21.5,421.6,22.2L419.2,16.8C421.1,15.8,423.2,15.1,425.5,14.5C427.8,14.0,429.9,13.8,432.0,13.8C436.5,13.8,439.8,14.7,442.1,16.7C444.4,18.7,445.6,21.7,445.6,25.9L445.6,49.8L440.2,49.8zM429.0,44.6C431.7,44.6,433.9,43.9,435.6,42.4C437.2,40.8,438.1,38.7,438.1,35.9L438.1,32.9L433.5,33.1C430.0,33.2,427.4,33.8,425.8,34.8C424.2,35.9,423.4,37.5,423.4,39.7C423.4,41.3,423.9,42.5,424.8,43.3C425.7,44.2,427.1,44.6,429.0,44.6zM474.3,13.8C478.8,13.8,482.2,15.3,484.7,18.5C487.1,21.7,488.4,26.2,488.4,32.0C488.4,37.8,487.1,42.3,484.6,45.6C482.1,48.8,478.7,50.4,474.2,50.4C469.7,50.4,466.3,48.8,463.8,45.6L463.3,45.6L461.9,49.8L456.3,49.8L456.3,.0L463.8,.0L463.8,11.8C463.8,12.7,463.8,14.0,463.7,15.7C463.6,17.5,463.5,18.6,463.5,19.0L463.8,19.0C466.2,15.5,469.7,13.8,474.3,13.8zM472.4,19.9C469.4,19.9,467.2,20.8,465.9,22.6C464.5,24.3,463.8,27.3,463.8,31.5L463.8,32.0C463.8,36.3,464.5,39.4,465.8,41.4C467.2,43.3,469.4,44.3,472.5,44.3C475.2,44.3,477.2,43.2,478.6,41.1C480.0,39.0,480.6,35.9,480.6,31.9C480.6,23.9,477.9,19.9,472.4,19.9z" transform="translate(5.22,-0.13)" fill-rule="nonzero" fill="url(#lg1)" id="shape2"/><path d="M.0,.0L493.6,.0" transform="translate(0.00,60.09)" stroke-width="2.666666746139526" stroke="url(#lg2)" fill="none" id="shape3"/><path d="M.0,.0L493.4,.0" transform="translate(0.16,65.72)" stroke-width="2.666666746139526" stroke="url(#lg2)" fill="none" id="shape4"/></g></svg>